# xmcd CD database file
#
# Track frame offsets:
#	150
#	24512
#	43718
#	58039
#	74013
#	99145
#	116495
#	136129
#	147967
#	184424
#	201756
#	229424
#	244151
#	261428
#	274203
#	286984
#	308064
#	331734
#
# Disc length: 4638 seconds
#
# Revision: 3
# Processed by: cddbd v1.5.2PL0 Copyright (c) Steve Scherf et al.
# Submitted via: CDex 1.70beta2
#
DISCID=13121c12
DTITLE=Best Jazz 100 Piano Standards Disc.4 - ロマンティック・スタンダーズ
DYEAR=2006
DGENRE=Jazz
TTITLE0=アイム・ア・フール・トゥ・ウォント・ユー - デューク・ピアソン 
TTITLE1=フォー・オール・ウィ・ノウ - フィニアス・ニューボーンJr. 
TTITLE2=インヴィテイション - ポール・スミス
TTITLE3=言い出しかねて - ジョン・ルイス
TTITLE4=グッドバイ - リニー・ロスネス
TTITLE5=ジーズ・フーリッシュ・シングス - エディ・ヒギンズ
TTITLE6=アワ・ラヴ・イズ・ヒア・トゥ・スティ - ザ・スリー・サウンズ
TTITLE7=ホワッツ・ニュー - ジョージ・シアリング
TTITLE8=チーク・トゥ・チーク - ドン・ランディ
TTITLE9=アイ・シュッド・ケア - デューク・ジョーダン
TTITLE10=ユー・ドント・ノウ・ホワット・ラヴ・イズ - ベニー・グリーン
TTITLE11=スカイラーク - マリアン・マクパートランド
TTITLE12=アイ・キャント・ギヴ・ユー・エニシング・バット・ラヴ - ソニー・クラーク
TTITLE13=ソフィスティケイテット・レディ - ジャッキー・テラソン
TTITLE14=プレリュード・トゥ・ア・キス - ホレス・シルヴァー
TTITLE15=エヴリシング・ハプンズ・トゥ・ミー - ケニー・ドリュー
TTITLE16=デイドリーム - アル・ヘイグ
TTITLE17=ウィル・ビー・トゥゲザー・アゲイン - ジミー・ロウルズ
EXTD=YEAR: 2006
EXTT0=
EXTT1=
EXTT2=
EXTT3=
EXTT4=
EXTT5=
EXTT6=
EXTT7=
EXTT8=
EXTT9=
EXTT10=
EXTT11=
EXTT12=
EXTT13=
EXTT14=
EXTT15=
EXTT16=
EXTT17=
PLAYORDER=
